<?xml version="1.0" encoding="UTF-8" standalone="no"?>
<!-- Created with Inkscape (http://www.inkscape.org/) -->

<svg
   width="64.793427mm"
   height="86.71833mm"
   viewBox="0 0 64.793426 86.718331"
   version="1.1"
   id="svg1"
   inkscape:version="1.3 (0e150ed6c4, 2023-07-21)"
   sodipodi:docname="ComplexShape.svg"
   xml:space="preserve"
   xmlns:inkscape="http://www.inkscape.org/namespaces/inkscape"
   xmlns:sodipodi="http://sodipodi.sourceforge.net/DTD/sodipodi-0.dtd"
   xmlns="http://www.w3.org/2000/svg"
   xmlns:svg="http://www.w3.org/2000/svg"><sodipodi:namedview
     id="namedview1"
     pagecolor="#ffffff"
     bordercolor="#000000"
     borderopacity="0.25"
     inkscape:showpageshadow="2"
     inkscape:pageopacity="0.0"
     inkscape:pagecheckerboard="0"
     inkscape:deskcolor="#d1d1d1"
     inkscape:document-units="mm"
     inkscape:zoom="1.8112972"
     inkscape:cx="134.43404"
     inkscape:cy="150.99676"
     inkscape:window-width="2560"
     inkscape:window-height="1369"
     inkscape:window-x="1912"
     inkscape:window-y="-8"
     inkscape:window-maximized="1"
     inkscape:current-layer="layer1" /><defs
     id="defs1"><filter
       style="color-interpolation-filters:sRGB"
       inkscape:label="Drop Shadow"
       id="filter54"
       x="-0.0486086"
       y="-0.039632286"
       width="1.132661"
       height="1.1081631"><feFlood
         result="flood"
         in="SourceGraphic"
         flood-opacity="0.498039"
         flood-color="rgb(0,0,0)"
         id="feFlood53" /><feGaussianBlur
         result="blur"
         in="SourceGraphic"
         stdDeviation="0.400000"
         id="feGaussianBlur53" /><feOffset
         result="offset"
         in="blur"
         dx="0.700000"
         dy="0.700000"
         id="feOffset53" /><feComposite
         result="comp1"
         operator="in"
         in="flood"
         in2="offset"
         id="feComposite53" /><feComposite
         result="comp2"
         operator="over"
         in="SourceGraphic"
         in2="comp1"
         id="feComposite54" /></filter></defs><g
     inkscape:label="Layer 1"
     inkscape:groupmode="layer"
     id="layer1"><rect
       style="fill:#ffffff;stroke:none;stroke-width:0.167082;stroke-dasharray:none;stroke-opacity:0.968254"
       id="rect66"
       width="64.793427"
       height="86.71833"
       x="0"
       y="0" /><path
       style="fill:#000000;stroke:#ff0000;stroke-width:0.245003;stroke-dasharray:none;stroke-opacity:0.968254"
       d="m 19.332809,13.662691 c 0,0 -4.302018,-2.530598 -1.518357,-6.4213925 -1.48673,-0.6959153 0.632647,-1.8346837 0.632647,-1.8346837 0,0 3.479572,-0.5377523 5.47242,0.2214266 1.992846,0.75918 4.017324,2.1193759 4.017324,2.1193759 0,0 2.815291,4.6183427 2.720393,4.7765037 0.885709,0.664282 3.036716,5.029565 3.036716,5.029565 0,0 2.941821,2.752025 3.606101,4.966298 0.664286,2.214271 3.289779,11.450956 3.289779,11.450956 0,0 0.88571,3.859161 0.06326,4.586706 1.233667,1.992848 1.803052,6.168335 1.803052,6.168335 0.12653,0.411223 0.442853,1.992848 0.189795,2.372436 0.601017,0.632651 0.664281,2.214272 -0.221428,2.087742 -0.88571,-0.569383 -2.214272,-1.739785 -2.214272,-1.739785 l 6.010168,36.472243 c 0,0 -0.854076,-0.917341 -0.91734,-1.296931 -0.06326,-0.37959 -4.58671,-17.967246 -4.58671,-17.967246 0,0 0.917343,5.282625 0.442856,5.187726 -0.601017,-0.253059 -2.15101,-7.401998 -2.15101,-7.401998 0,0 -1.803049,-5.535684 -1.929579,-6.294864 -0.60102,-1.012239 -2.404069,-6.927511 -2.467334,-8.003014 -0.63265,-1.581625 -1.581624,-6.2316 -1.423461,-7.085675 -1.897947,-0.885709 -5.47242,-5.092828 -6.105069,-5.915273 -0.632648,-0.822444 -3.194881,-4.238752 -3.35304,-4.71324 -0.221429,0.917341 -0.601021,0.664282 -0.601021,0.664282 0,0 -3.131615,-1.739785 -2.404066,-8.540768 -0.284692,-2.467333 0.347959,-3.985692 0.980606,-4.618341 -0.316324,-1.170402 0.126533,-1.897948 0.126533,-1.897948 l -0.474488,0.253059 0.537752,-0.980607 -0.0949,-0.316325 c 0,0 -0.06326,-1.613255 0.506122,-2.18264 -1.170402,-0.12653 -3.384678,-0.727547 -3.542838,-1.13877 0.03163,0.854077 0.0949,1.549992 0.569383,1.992847 z"
       id="path66" /><rect
       style="fill:#ff0000;stroke:none;stroke-width:0.2;stroke-dasharray:none;stroke-opacity:0.968254"
       id="rect67"
       width="0.48215818"
       height="0.48215818"
       x="19.045248"
       y="13.403996" /><rect
       style="fill:#ff0000;stroke:none;stroke-width:0.2;stroke-dasharray:none;stroke-opacity:0.968254"
       id="rect68"
       width="0.48215818"
       height="0.48215818"
       x="17.550558"
       y="7.0877247" /><rect
       style="fill:#ff0000;stroke:none;stroke-width:0.2;stroke-dasharray:none;stroke-opacity:0.968254"
       id="rect69"
       width="0.48215818"
       height="0.48215818"
       x="18.22558"
       y="5.3037395" /><rect
       style="fill:#ff0000;stroke:none;stroke-width:0.2;stroke-dasharray:none;stroke-opacity:0.968254"
       id="rect70"
       width="0.48215818"
       height="0.48215818"
       x="27.627665"
       y="7.4734511" /><rect
       style="fill:#ff0000;stroke:none;stroke-width:0.2;stroke-dasharray:none;stroke-opacity:0.968254"
       id="rect71"
       width="0.48215818"
       height="0.48215818"
       x="30.375967"
       y="12.246817" /><rect
       style="fill:#ff0000;stroke:none;stroke-width:0.2;stroke-dasharray:none;stroke-opacity:0.968254"
       id="rect72"
       width="0.48215818"
       height="0.48215818"
       x="33.365349"
       y="17.309477" /><rect
       style="fill:#ff0000;stroke:none;stroke-width:0.2;stroke-dasharray:none;stroke-opacity:0.968254"
       id="rect73"
       width="0.48215818"
       height="0.48215818"
       x="40.404858"
       y="38.186924" /><rect
       style="fill:#ff0000;stroke:none;stroke-width:0.2;stroke-dasharray:none;stroke-opacity:0.968254"
       id="rect74"
       width="0.48215818"
       height="0.48215818"
       x="42.42992"
       y="46.769341" /><rect
       style="fill:#ff0000;stroke:none;stroke-width:0.2;stroke-dasharray:none;stroke-opacity:0.968254"
       id="rect75"
       width="0.48215818"
       height="0.48215818"
       x="39.970913"
       y="47.251499" /><rect
       style="fill:#ff0000;stroke:none;stroke-width:0.2;stroke-dasharray:none;stroke-opacity:0.968254"
       id="rect76"
       width="0.48215818"
       height="0.48215818"
       x="45.901459"
       y="83.558006" /><rect
       style="fill:#ff0000;stroke:none;stroke-width:0.2;stroke-dasharray:none;stroke-opacity:0.968254"
       id="rect77"
       width="0.48215818"
       height="0.48215818"
       x="45.033573"
       y="82.593689" /><rect
       style="fill:#ff0000;stroke:none;stroke-width:0.2;stroke-dasharray:none;stroke-opacity:0.968254"
       id="rect78"
       width="0.48215818"
       height="0.48215818"
       x="40.501286"
       y="64.70562" /><rect
       style="fill:#ff0000;stroke:none;stroke-width:0.2;stroke-dasharray:none;stroke-opacity:0.968254"
       id="rect79"
       width="0.48215818"
       height="0.48215818"
       x="40.935226"
       y="69.430771" /><rect
       style="fill:#ff0000;stroke:none;stroke-width:0.2;stroke-dasharray:none;stroke-opacity:0.968254"
       id="rect80"
       width="0.48215818"
       height="0.48215818"
       x="38.813732"
       y="62.246613" /><rect
       style="fill:#ff0000;stroke:none;stroke-width:0.2;stroke-dasharray:none;stroke-opacity:0.968254"
       id="rect81"
       width="0.48215818"
       height="0.48215818"
       x="36.885101"
       y="55.882126" /><rect
       style="fill:#ff0000;stroke:none;stroke-width:0.2;stroke-dasharray:none;stroke-opacity:0.968254"
       id="rect82"
       width="0.48215818"
       height="0.48215818"
       x="33.076054"
       y="40.838791" /><rect
       style="fill:#ff0000;stroke:none;stroke-width:0.2;stroke-dasharray:none;stroke-opacity:0.968254"
       id="rect83"
       width="0.48215818"
       height="0.48215818"
       x="23.577538"
       y="30.086664" /><rect
       style="fill:#ff0000;stroke:none;stroke-width:0.2;stroke-dasharray:none;stroke-opacity:0.968254"
       id="rect84"
       width="0.48215818"
       height="0.48215818"
       x="21.456041"
       y="17.839848" /><rect
       style="fill:#ff0000;stroke:none;stroke-width:0.2;stroke-dasharray:none;stroke-opacity:0.968254"
       id="rect85"
       width="0.48215818"
       height="0.48215818"
       x="21.552473"
       y="15.911215" /><rect
       style="fill:#ff0000;stroke:none;stroke-width:0.2;stroke-dasharray:none;stroke-opacity:0.968254"
       id="rect86"
       width="0.48215818"
       height="0.48215818"
       x="20.973883"
       y="15.862999" /><rect
       style="fill:#ff0000;stroke:none;stroke-width:0.2;stroke-dasharray:none;stroke-opacity:0.968254"
       id="rect87"
       width="0.48215818"
       height="0.48215818"
       x="21.745337"
       y="15.091546" /><rect
       style="fill:#ff0000;stroke:none;stroke-width:0.2;stroke-dasharray:none;stroke-opacity:0.968254"
       id="rect88"
       width="0.48215818"
       height="0.48215818"
       x="22.082848"
       y="12.63254" /><rect
       style="fill:#ff0000;stroke:none;stroke-width:0.2;stroke-dasharray:none;stroke-opacity:0.968254"
       id="rect89"
       width="0.48215818"
       height="0.48215818"
       x="18.659525"
       y="11.427144" /><g
       id="g54"
       transform="matrix(1.1212375,0,0,1.1212375,-35.582115,-35.281317)"><path
         style="fill:#e6e6e6;stroke:none;stroke-width:0.311457;stroke-dasharray:none;stroke-opacity:0.968254;filter:url(#filter54)"
         d="m 48.192913,77.523824 c 0.07421,-0.319231 23.610387,5.267295 16.27388,14.846279 l 3.475712,4.036417 -5.214038,5.327 -3.758693,-4.123944 c 0.163477,-0.163477 -9.910302,8.694434 -10.776861,-20.085752 z"
         id="path7"
         sodipodi:nodetypes="cccccc"
         transform="matrix(0.33202864,0.00985986,-0.00899633,0.31020959,54.366964,49.091411)" /><g
         id="g4"
         transform="matrix(0.27487844,0,0,0.27487844,56.769005,52.838382)"
         style="fill:#ffffff"><path
           style="fill:#ffffff;stroke:#000000;stroke-width:0.586999;stroke-opacity:0.968254;-inkscape-stroke:none"
           d="m 48.192913,77.523824 c -0.124577,0.0453 25.230512,6.419824 16.231682,15.318512 l 3.973414,4.138321 -4.90667,4.493173 -3.983258,-4.293394 C 59.671558,97.016959 49.059472,106.30401 48.192913,77.523824 Z"
           id="path1"
           sodipodi:nodetypes="cccccc" /><path
           style="fill:#ffffff;stroke:#000000;stroke-width:0.586999;stroke-opacity:0.968254;-inkscape-stroke:none"
           d="M 48.173375,77.377188 55.9266,88.024953"
           id="path2" /><ellipse
           style="fill:#000000;stroke:#000000;stroke-width:0.586999;stroke-opacity:0.968254;-inkscape-stroke:none"
           id="path3"
           cx="56.288414"
           cy="88.748589"
           rx="1.5506451"
           ry="1.4472687" /><ellipse
           style="fill:#000000;stroke:#000000;stroke-width:0.586999;stroke-opacity:0.968254;-inkscape-stroke:none"
           id="path4"
           cx="48.276749"
           cy="77.609787"
           rx="0.62025803"
           ry="0.69779027" /></g></g></g></svg>
